<svg width="47" height="36" viewBox="0 0 47 36" fill="none" xmlns="http://www.w3.org/2000/svg">
<path d="M44.0384 29.5316C44.0384 30.3097 43.7293 31.056 43.1791 31.6063C42.6288 32.1565 41.8825 32.4656 41.1044 32.4656H5.8956C5.11743 32.4656 4.37114 32.1565 3.8209 31.6063C3.27065 31.056 2.96153 30.3097 2.96153 29.5316V11.9272C2.96153 11.149 3.27065 10.4027 3.8209 9.85248C4.37114 9.30224 5.11743 8.99311 5.8956 8.99311H9.33432C11.6676 8.99184 13.9049 8.0642 15.5545 6.41407L17.9898 3.98466C18.5385 3.43582 19.2823 3.1267 20.0583 3.12498H26.9358C27.7139 3.12515 28.46 3.43438 29.0102 3.98466L31.4396 6.41407C32.2571 7.23183 33.2277 7.88051 34.296 8.32303C35.3643 8.76555 36.5093 8.99325 37.6656 8.99311H41.1044C41.8825 8.99311 42.6288 9.30224 43.1791 9.85248C43.7293 10.4027 44.0384 11.149 44.0384 11.9272V29.5316ZM5.8956 6.05905C4.33927 6.05905 2.84669 6.67729 1.7462 7.77778C0.645714 8.87827 0.0274658 10.3709 0.0274658 11.9272L0.0274658 29.5316C0.0274658 31.0879 0.645714 32.5805 1.7462 33.681C2.84669 34.7814 4.33927 35.3997 5.8956 35.3997H41.1044C42.6607 35.3997 44.1533 34.7814 45.2538 33.681C46.3543 32.5805 46.9725 31.0879 46.9725 29.5316V11.9272C46.9725 10.3709 46.3543 8.87827 45.2538 7.77778C44.1533 6.67729 42.6607 6.05905 41.1044 6.05905H37.6656C36.1095 6.05871 34.6171 5.44025 33.5169 4.33969L31.0875 1.91028C29.9872 0.809716 28.4949 0.19125 26.9387 0.190918H20.0613C18.5051 0.19125 17.0127 0.809716 15.9125 1.91028L13.4831 4.33969C12.3829 5.44025 10.8905 6.05871 9.33432 6.05905H5.8956Z" fill="white"/>
<path d="M23.5 26.5976C21.5546 26.5976 19.6889 25.8247 18.3133 24.4491C16.9377 23.0735 16.1649 21.2078 16.1649 19.2624C16.1649 17.317 16.9377 15.4513 18.3133 14.0756C19.6889 12.7 21.5546 11.9272 23.5 11.9272C25.4454 11.9272 27.3112 12.7 28.6868 14.0756C30.0624 15.4513 30.8352 17.317 30.8352 19.2624C30.8352 21.2078 30.0624 23.0735 28.6868 24.4491C27.3112 25.8247 25.4454 26.5976 23.5 26.5976ZM23.5 29.5316C26.2236 29.5316 28.8356 28.4497 30.7615 26.5238C32.6873 24.598 33.7692 21.986 33.7692 19.2624C33.7692 16.5388 32.6873 13.9268 30.7615 12.001C28.8356 10.0751 26.2236 8.99316 23.5 8.99316C20.7765 8.99316 18.1644 10.0751 16.2386 12.001C14.3127 13.9268 13.2308 16.5388 13.2308 19.2624C13.2308 21.986 14.3127 24.598 16.2386 26.5238C18.1644 28.4497 20.7765 29.5316 23.5 29.5316V29.5316ZM8.82969 13.3943C8.82969 13.7833 8.67513 14.1565 8.40001 14.4316C8.12489 14.7067 7.75174 14.8613 7.36266 14.8613C6.97358 14.8613 6.60044 14.7067 6.32531 14.4316C6.05019 14.1565 5.89563 13.7833 5.89563 13.3943C5.89563 13.0052 6.05019 12.632 6.32531 12.3569C6.60044 12.0818 6.97358 11.9272 7.36266 11.9272C7.75174 11.9272 8.12489 12.0818 8.40001 12.3569C8.67513 12.632 8.82969 13.0052 8.82969 13.3943V13.3943Z" fill="white"/>
</svg>
